<svg width="1473" height="337" viewBox="0 0 1473 337" fill="none" xmlns="http://www.w3.org/2000/svg">
    <path d="M45.9076 313.242L187.824 136.675" stroke="white" stroke-width="46.8"
        stroke-linecap="round" />
    <path d="M24.0004 202.388L165.917 25.8215" stroke="white" stroke-width="46.8"
        stroke-linecap="round" />
    <path d="M1471.7 1.90039V320.07H1433.09V1.90039H1471.7Z" fill="white" stroke="white"
        stroke-width="2.2" />
    <path
        d="M1280.1 77.8071C1287.79 77.8071 1296.6 78.7416 1306.51 80.6001H1306.51C1316.63 82.3731 1326.37 86.0746 1335.74 91.6919H1335.74C1345.29 97.3626 1353.19 105.903 1359.44 117.255L1360.02 118.338C1365.92 129.643 1368.83 144.501 1368.83 162.836V320.07H1330.22V287.979H1330.15C1327.75 292.751 1324.02 297.776 1318.98 303.053L1317.91 304.159C1312.21 309.959 1304.72 314.89 1295.47 318.971L1294.57 319.363C1284.83 323.552 1273 325.624 1259.11 325.624C1243.96 325.624 1230.17 322.768 1217.77 317.037L1217.76 317.034C1205.35 311.192 1195.47 302.783 1188.16 291.809L1188.15 291.805C1180.81 280.692 1177.17 267.307 1177.17 251.703C1177.17 237.99 1179.87 226.76 1185.36 218.097C1190.81 209.4 1198.1 202.584 1207.22 197.662C1215.98 192.927 1225.61 189.37 1236.11 186.983L1237.12 186.755C1248.06 184.28 1259.04 182.321 1270.08 180.876H1270.08L1275.36 180.204C1287.36 178.685 1297.28 177.52 1305.12 176.708L1306.78 176.509C1314.92 175.473 1320.78 173.865 1324.44 171.756L1324.46 171.75L1324.8 171.547C1328.37 169.392 1330.22 165.759 1330.22 160.368V159.133C1330.22 144.114 1326.11 132.596 1318.04 124.421L1318.03 124.417C1310.09 116.271 1297.93 112.097 1281.33 112.097C1264.37 112.097 1251.15 115.754 1241.57 122.941L1241.12 123.286C1231.34 130.821 1224.53 138.817 1220.62 147.254L1220.19 148.165L1219.25 147.827L1184.69 135.484L1183.59 135.09L1184.05 134.015C1190.28 119.479 1198.61 108.105 1209.07 99.9478C1219.24 91.9906 1230.3 86.3677 1242.25 83.0894L1243.41 82.7788C1255.84 79.4657 1268.07 77.8071 1280.1 77.8071ZM1330.22 202.283C1329.59 202.71 1328.89 203.119 1328.11 203.509C1326.33 204.397 1324.11 205.228 1321.45 206.01L1321.43 206.014C1316.24 207.467 1310.24 208.761 1303.42 209.897L1303.41 209.9C1296.71 210.93 1290.17 211.856 1283.79 212.68L1283.77 212.682C1277.5 213.402 1272.41 214.019 1268.51 214.532H1268.51C1259.12 215.758 1250.34 217.749 1242.19 220.5L1242.18 220.502C1234.2 223.127 1227.79 227.099 1222.89 232.393L1222.89 232.392C1218.19 237.486 1215.78 244.496 1215.78 253.554C1215.78 265.886 1220.32 275.089 1229.34 281.338L1230.21 281.913C1239.31 287.757 1250.77 290.716 1264.67 290.716C1278.93 290.716 1290.86 287.916 1300.53 282.376L1300.54 282.374L1301.45 281.847C1310.82 276.354 1317.87 269.363 1322.65 260.882L1322.65 260.875L1323.12 260.049C1327.86 251.508 1330.22 242.559 1330.22 233.189V202.283Z"
        fill="white" stroke="white" stroke-width="2.2" />
    <path
        d="M1147.32 117.342L1145.95 117C1144.79 116.709 1142.02 116.253 1137.58 115.634L1137.55 115.63C1133.3 114.921 1128.78 114.564 1124 114.564C1112.64 114.564 1102.54 116.947 1093.66 121.686L1093.66 121.688C1084.88 126.33 1077.93 132.777 1072.79 141.041L1072.79 141.042C1067.77 149.184 1065.24 158.494 1065.24 169.006V320.068H1026.63V80.8906H1064.01V116.685H1064.62C1069.08 105.048 1076.96 95.5902 1088.23 88.3184L1089.31 87.6328C1100.54 80.6662 1113.14 77.1885 1127.09 77.1885C1129.77 77.1885 1133.13 77.2398 1137.14 77.3428C1141.16 77.4458 1144.23 77.6007 1146.33 77.8105L1147.32 77.9102V117.342Z"
        fill="white" stroke="white" stroke-width="2.2" />
    <path
        d="M923.455 24.1147V80.8901H974.06V113.947H923.455V251.083C923.455 261.295 924.941 268.775 927.777 273.668C930.752 278.521 934.472 281.722 938.922 283.371C943.633 284.973 948.6 285.777 953.829 285.777C957.804 285.777 961.028 285.572 963.519 285.174C966.075 284.663 968.122 284.254 969.658 283.947L970.71 283.737L970.947 284.783L978.353 317.491L978.564 318.426L977.666 318.763C975.121 319.718 971.613 320.657 967.168 321.587L967.167 321.586C962.637 322.637 956.949 323.153 950.126 323.153C939.678 323.153 929.445 320.906 919.438 316.423L919.434 316.421C909.479 311.916 901.204 305.05 894.616 295.848L894.611 295.841C888.075 286.564 884.845 274.911 884.845 260.958V113.947H849.052V80.8901H884.845V24.1147H923.455Z"
        fill="white" stroke="white" stroke-width="2.2" />
    <path
        d="M726.841 77.8071C750.439 77.8072 769.115 82.981 782.74 93.4604H782.741C796.399 103.886 806.09 117.65 811.813 134.715L812.18 135.81L811.069 136.124L778.362 145.38L777.39 145.656L777.033 144.71C775.02 139.375 772.044 134.173 768.093 129.108L768.077 129.088C764.405 124.16 759.405 120.049 753.042 116.77L752.423 116.456C745.835 113.162 737.328 111.48 726.841 111.48C712.509 111.48 700.655 114.782 691.21 121.313L691.208 121.315C681.892 127.726 677.336 135.791 677.336 145.556C677.336 154.301 680.497 161.122 686.796 166.141L687.406 166.618C693.832 171.512 703.739 175.675 717.233 179.048H717.232L752.405 187.687H752.404C773.7 192.856 789.705 200.794 800.289 211.586L800.783 212.091C811.071 222.742 816.19 236.389 816.19 252.937C816.19 266.741 812.211 279.106 804.253 289.997C796.409 300.871 785.446 309.418 771.412 315.655C757.36 321.9 741.054 325.006 722.521 325.006C698.572 325.006 678.594 319.89 662.653 309.582L661.897 309.087C646.047 298.589 635.934 283.322 631.548 263.373L631.343 262.419L631.127 261.383L632.153 261.126L666.712 252.487L667.771 252.222L668.044 253.28C671.282 265.827 677.376 275.148 686.276 281.348H686.275C695.297 287.561 707.143 290.716 721.903 290.716C738.728 290.716 751.95 287.146 761.68 280.125L762.59 279.452C771.841 272.449 776.345 264.234 776.345 254.789C776.345 246.849 773.58 240.247 768.042 234.907L768.034 234.9L768.806 234.115L768.034 234.899C762.475 229.439 753.848 225.288 742.02 222.535H742.018L702.521 213.278L702.519 213.277C680.706 208.108 664.531 200.064 654.145 189.047L654.138 189.04C643.85 177.912 638.726 164.008 638.726 147.408C638.726 133.816 642.546 121.758 650.199 111.275L650.204 111.269L650.938 110.295C658.599 100.305 668.848 92.4421 681.648 86.6968L681.651 86.6958L682.906 86.1479C695.922 80.5795 710.573 77.8071 726.841 77.8071Z"
        fill="white" stroke="white" stroke-width="2.2" />
    <path
        d="M488.823 77.8071C496.517 77.8071 505.325 78.7416 515.24 80.6001H515.241C525.358 82.3731 535.099 86.0746 544.463 91.6919H544.464C554.02 97.3626 561.913 105.903 568.162 117.255L568.743 118.338C574.646 129.643 577.556 144.501 577.556 162.836V320.07H538.945V287.979H538.878C536.481 292.751 532.745 297.776 527.706 303.053L526.636 304.159C520.937 309.959 513.446 314.89 504.198 318.971L503.298 319.363C493.558 323.552 481.727 325.624 467.841 325.624C452.683 325.624 438.895 322.768 426.495 317.037L426.487 317.034C414.075 311.192 404.198 302.783 396.882 291.809L396.879 291.805C389.54 280.692 385.897 267.307 385.897 251.703C385.897 237.99 388.597 226.76 394.091 218.097C399.541 209.4 406.83 202.584 415.942 197.662C424.706 192.927 434.338 189.37 444.833 186.983L445.852 186.755C456.785 184.28 467.77 182.321 478.807 180.876H478.809L484.083 180.204C496.086 178.685 506.007 177.52 513.847 176.708L515.507 176.509C523.651 175.473 529.503 173.865 533.171 171.756L533.182 171.75L533.531 171.547C537.094 169.392 538.945 165.759 538.945 160.368V159.133C538.945 144.114 534.84 132.596 526.766 124.421L526.761 124.417C518.814 116.271 506.653 112.097 490.058 112.097C473.093 112.097 459.881 115.754 450.298 122.941L449.845 123.286C440.069 130.821 433.26 138.817 429.343 147.254L428.92 148.165L427.975 147.827L393.415 135.484L392.313 135.09L392.774 134.015C399.004 119.479 407.335 108.105 417.794 99.9478C427.967 91.9906 439.03 86.3677 450.977 83.0894L452.136 82.7788C464.562 79.4657 476.792 77.8071 488.823 77.8071ZM538.945 202.283C538.321 202.71 537.615 203.119 536.834 203.509C535.059 204.397 532.833 205.228 530.173 206.01L530.159 206.014C524.969 207.467 518.963 208.761 512.146 209.897L512.133 209.9C505.439 210.93 498.899 211.856 492.513 212.68L492.497 212.682C486.226 213.402 481.141 214.019 477.241 214.532H477.24C467.842 215.758 459.067 217.749 450.913 220.5L450.905 220.502C442.93 223.127 436.516 227.099 431.621 232.393L431.62 232.392C426.918 237.486 424.508 244.496 424.508 253.554C424.508 265.886 429.043 275.089 438.062 281.338L438.936 281.913C448.037 287.757 459.501 290.716 473.396 290.716C487.653 290.716 499.59 287.916 509.259 282.376L509.263 282.374L510.177 281.847C519.544 276.354 526.595 269.363 531.372 260.882L531.377 260.875L531.844 260.049C536.584 251.508 538.945 242.559 538.945 233.189V202.283Z"
        fill="white" stroke="white" stroke-width="2.2" />
</svg>