<svg width="1473" height="337" viewBox="0 0 1473 337" fill="none" xmlns="http://www.w3.org/2000/svg">
<path d="M45.9086 313.242L187.825 136.675" stroke="black" stroke-width="46.8" stroke-linecap="round"/>
<path d="M24.0013 202.388L165.918 25.8215" stroke="black" stroke-width="46.8" stroke-linecap="round"/>
<path d="M1471.7 1.90039V320.07H1433.09V1.90039H1471.7Z" fill="black" stroke="black" stroke-width="2.2"/>
<path d="M1280.1 77.8071C1287.79 77.8071 1296.6 78.7416 1306.52 80.6001H1306.52C1316.63 82.3731 1326.38 86.0746 1335.74 91.6919H1335.74C1345.3 97.3626 1353.19 105.903 1359.44 117.255L1360.02 118.338C1365.92 129.643 1368.83 144.501 1368.83 162.836V320.07H1330.22V287.979H1330.15C1327.76 292.751 1324.02 297.776 1318.98 303.053L1317.91 304.159C1312.21 309.959 1304.72 314.89 1295.47 318.971L1294.57 319.363C1284.83 323.552 1273 325.624 1259.12 325.624C1243.96 325.624 1230.17 322.768 1217.77 317.037L1217.76 317.034C1205.35 311.192 1195.47 302.783 1188.16 291.809L1188.16 291.805C1180.82 280.692 1177.17 267.307 1177.17 251.703C1177.17 237.99 1179.87 226.76 1185.37 218.097C1190.82 209.4 1198.11 202.584 1207.22 197.662C1215.98 192.927 1225.61 189.37 1236.11 186.983L1237.13 186.755C1248.06 184.28 1259.05 182.321 1270.08 180.876H1270.08L1275.36 180.204C1287.36 178.685 1297.28 177.52 1305.12 176.708L1306.78 176.509C1314.93 175.473 1320.78 173.865 1324.45 171.756L1324.46 171.75L1324.81 171.547C1328.37 169.392 1330.22 165.759 1330.22 160.368V159.133C1330.22 144.114 1326.12 132.596 1318.04 124.421L1318.04 124.417C1310.09 116.271 1297.93 112.097 1281.33 112.097C1264.37 112.097 1251.16 115.754 1241.57 122.941L1241.12 123.286C1231.35 130.821 1224.54 138.817 1220.62 147.254L1220.2 148.165L1219.25 147.827L1184.69 135.484L1183.59 135.09L1184.05 134.015C1190.28 119.479 1198.61 108.105 1209.07 99.9478C1219.24 91.9906 1230.31 86.3677 1242.25 83.0894L1243.41 82.7788C1255.84 79.4657 1268.07 77.8071 1280.1 77.8071ZM1330.22 202.283C1329.6 202.71 1328.89 203.119 1328.11 203.509C1326.34 204.397 1324.11 205.228 1321.45 206.01L1321.44 206.014C1316.25 207.467 1310.24 208.761 1303.42 209.897L1303.41 209.9C1296.72 210.93 1290.18 211.856 1283.79 212.68L1283.77 212.682C1277.5 213.402 1272.42 214.019 1268.52 214.532H1268.52C1259.12 215.758 1250.34 217.749 1242.19 220.5L1242.18 220.502C1234.21 223.127 1227.79 227.099 1222.9 232.393L1222.9 232.392C1218.19 237.486 1215.78 244.496 1215.78 253.554C1215.78 265.886 1220.32 275.089 1229.34 281.338L1230.21 281.913C1239.31 287.757 1250.78 290.716 1264.67 290.716C1278.93 290.716 1290.87 287.916 1300.54 282.376L1300.54 282.374L1301.45 281.847C1310.82 276.354 1317.87 269.363 1322.65 260.882L1322.65 260.875L1323.12 260.049C1327.86 251.508 1330.22 242.559 1330.22 233.189V202.283Z" fill="black" stroke="black" stroke-width="2.2"/>
<path d="M1147.32 117.342L1145.96 117C1144.79 116.709 1142.02 116.253 1137.58 115.634L1137.56 115.63C1133.3 114.921 1128.79 114.564 1124.01 114.564C1112.64 114.564 1102.54 116.947 1093.67 121.686L1093.66 121.688C1084.88 126.33 1077.93 132.777 1072.79 141.041L1072.79 141.042C1067.77 149.184 1065.24 158.494 1065.24 169.006V320.068H1026.63V80.8906H1064.01V116.685H1064.62C1069.08 105.048 1076.97 95.5902 1088.23 88.3184L1089.32 87.6328C1100.55 80.6662 1113.15 77.1885 1127.09 77.1885C1129.78 77.1885 1133.13 77.2398 1137.15 77.3428C1141.17 77.4458 1144.23 77.6007 1146.33 77.8105L1147.32 77.9102V117.342Z" fill="black" stroke="black" stroke-width="2.2"/>
<path d="M923.458 24.1147V80.8901H974.062V113.947H923.458V251.083C923.458 261.295 924.944 268.775 927.78 273.668C930.755 278.521 934.475 281.722 938.925 283.371C943.636 284.973 948.603 285.777 953.832 285.777C957.807 285.777 961.031 285.572 963.521 285.174C966.078 284.663 968.125 284.254 969.661 283.947L970.713 283.737L970.95 284.783L978.355 317.491L978.567 318.426L977.669 318.763C975.124 319.718 971.616 320.657 967.171 321.587L967.17 321.586C962.64 322.637 956.952 323.153 950.129 323.153C939.681 323.153 929.448 320.906 919.44 316.423L919.437 316.421C909.482 311.916 901.207 305.05 894.619 295.848L894.614 295.841C888.078 286.564 884.848 274.911 884.848 260.958V113.947H849.055V80.8901H884.848V24.1147H923.458Z" fill="black" stroke="black" stroke-width="2.2"/>
<path d="M726.844 77.8071C750.442 77.8072 769.118 82.981 782.743 93.4604H782.744C796.402 103.886 806.093 117.65 811.816 134.715L812.183 135.81L811.072 136.124L778.365 145.38L777.393 145.656L777.036 144.71C775.023 139.375 772.047 134.173 768.096 129.108L768.08 129.088C764.408 124.16 759.408 120.049 753.045 116.77L752.426 116.456C745.838 113.162 737.331 111.48 726.844 111.48C712.512 111.48 700.658 114.782 691.213 121.313L691.211 121.315C681.895 127.726 677.339 135.791 677.339 145.556C677.339 154.301 680.5 161.122 686.799 166.141L687.409 166.618C693.835 171.512 703.742 175.675 717.236 179.048H717.235L752.408 187.687H752.407C773.703 192.856 789.708 200.794 800.292 211.586L800.786 212.091C811.074 222.742 816.193 236.389 816.193 252.937C816.193 266.741 812.214 279.106 804.256 289.997C796.412 300.871 785.448 309.418 771.415 315.655C757.363 321.9 741.056 325.006 722.523 325.006C698.575 325.006 678.597 319.89 662.656 309.582L661.9 309.087C646.049 298.589 635.937 283.322 631.551 263.373L631.346 262.419L631.13 261.383L632.156 261.126L666.715 252.487L667.774 252.222L668.047 253.28C671.285 265.827 677.379 275.148 686.279 281.348H686.278C695.3 287.561 707.146 290.716 721.906 290.716C738.731 290.716 751.952 287.146 761.683 280.125L762.593 279.452C771.844 272.449 776.348 264.234 776.348 254.789C776.348 246.849 773.583 240.247 768.045 234.907L768.037 234.9L768.809 234.115L768.037 234.899C762.478 229.439 753.851 225.288 742.022 222.535H742.021L702.524 213.278L702.521 213.277C680.709 208.108 664.534 200.064 654.147 189.047L654.141 189.04C643.853 177.912 638.729 164.008 638.729 147.408C638.729 133.816 642.549 121.758 650.202 111.275L650.207 111.269L650.94 110.295C658.602 100.305 668.851 92.4421 681.651 86.6968L681.654 86.6958L682.909 86.1479C695.925 80.5795 710.576 77.8071 726.844 77.8071Z" fill="black" stroke="black" stroke-width="2.2"/>
<path d="M488.826 77.8071C496.519 77.8071 505.328 78.7416 515.243 80.6001H515.244C525.361 82.3731 535.102 86.0746 544.466 91.6919H544.467C554.023 97.3626 561.916 105.903 568.165 117.255L568.746 118.338C574.649 129.643 577.559 144.501 577.559 162.836V320.07H538.948V287.979H538.881C536.484 292.751 532.747 297.776 527.709 303.053L526.639 304.159C520.94 309.959 513.449 314.89 504.201 318.971L503.301 319.363C493.561 323.552 481.73 325.624 467.844 325.624C452.686 325.624 438.898 322.768 426.498 317.037L426.49 317.034C414.077 311.192 404.2 302.783 396.885 291.809L396.882 291.805C389.543 280.692 385.9 267.307 385.9 251.703C385.9 237.99 388.6 226.76 394.094 218.097C399.544 209.4 406.833 202.584 415.945 197.662C424.709 192.927 434.341 189.37 444.836 186.983L445.854 186.755C456.788 184.28 467.773 182.321 478.81 180.876H478.812L484.086 180.204C496.089 178.685 506.01 177.52 513.85 176.708L515.51 176.509C523.654 175.473 529.506 173.865 533.174 171.756L533.185 171.75L533.534 171.547C537.096 169.392 538.948 165.759 538.948 160.368V159.133C538.948 144.114 534.843 132.596 526.769 124.421L526.764 124.417C518.817 116.271 506.656 112.097 490.061 112.097C473.096 112.097 459.884 115.754 450.301 122.941L449.848 123.286C440.072 130.821 433.263 138.817 429.346 147.254L428.923 148.165L427.978 147.827L393.418 135.484L392.316 135.09L392.777 134.015C399.007 119.479 407.338 108.105 417.797 99.9478C427.97 91.9906 439.033 86.3677 450.979 83.0894L452.139 82.7788C464.565 79.4657 476.795 77.8071 488.826 77.8071ZM538.948 202.283C538.324 202.71 537.618 203.119 536.837 203.509C535.062 204.397 532.836 205.228 530.176 206.01L530.162 206.014C524.972 207.467 518.966 208.761 512.149 209.897L512.136 209.9C505.442 210.93 498.902 211.856 492.516 212.68L492.5 212.682C486.229 213.402 481.144 214.019 477.244 214.532H477.243C467.845 215.758 459.07 217.749 450.916 220.5L450.908 220.502C442.933 223.127 436.519 227.099 431.624 232.393L431.623 232.392C426.921 237.486 424.511 244.496 424.511 253.554C424.511 265.886 429.046 275.089 438.065 281.338L438.938 281.913C448.04 287.757 459.504 290.716 473.398 290.716C487.656 290.716 499.593 287.916 509.262 282.376L509.266 282.374L510.18 281.847C519.547 276.354 526.598 269.363 531.375 260.882L531.38 260.875L531.847 260.049C536.587 251.508 538.948 242.559 538.948 233.189V202.283Z" fill="black" stroke="black" stroke-width="2.2"/>
</svg>
