<svg width="1450" height="339" viewBox="0 0 1450 339" fill="none" xmlns="http://www.w3.org/2000/svg">
    <path d="M45.9076 315.242L187.824 138.675" stroke="white" stroke-width="46.8"
        stroke-linecap="round" />
    <path d="M24.0004 204.388L165.917 27.8215" stroke="white" stroke-width="46.8"
        stroke-linecap="round" />
    <path d="M1446.94 2.5V323.47H1405.53V2.5H1446.94Z" fill="white" stroke="white" stroke-width="5" />
    <path
        d="M1270.86 78.5C1278.66 78.5 1287.55 79.4468 1297.52 81.3145H1297.52C1307.82 83.1193 1317.72 86.8855 1327.23 92.5869H1327.22C1337.03 98.4059 1345.08 107.145 1351.43 118.674L1352.02 119.783C1358.07 131.359 1360.99 146.466 1360.99 164.93V323.563H1319.58V295.181C1317.28 298.725 1314.33 302.369 1310.75 306.114L1309.67 307.232C1303.82 313.187 1296.17 318.21 1286.8 322.345L1285.89 322.742C1275.93 327.026 1263.9 329.117 1249.88 329.117C1234.54 329.117 1220.55 326.227 1207.94 320.401L1207.93 320.394C1195.3 314.448 1185.22 305.874 1177.75 294.679L1177.75 294.67C1170.23 283.289 1166.53 269.624 1166.53 253.796C1166.53 240.344 1169.1 229.117 1174.42 220.288L1174.95 219.44C1180.52 210.539 1187.99 203.559 1197.31 198.523C1206.48 193.569 1216.58 189.893 1227.59 187.481C1238.56 184.998 1249.59 183.031 1260.66 181.582L1260.67 181.581L1265.94 180.908C1277.96 179.388 1287.9 178.221 1295.75 177.408C1304.7 176.389 1310.86 174.737 1314.51 172.637L1314.52 172.63L1314.53 172.623L1314.83 172.448C1317.89 170.602 1319.58 167.485 1319.58 162.461V161.227C1319.58 146.467 1315.55 135.343 1307.81 127.499L1307.8 127.493L1307.8 127.487C1300.21 119.709 1288.47 115.591 1272.09 115.591C1255.58 115.591 1242.85 119.094 1233.62 125.826L1232.74 126.487C1223.09 133.926 1216.45 141.756 1212.65 149.937L1211.69 152.006L1209.54 151.238L1174.98 138.896L1172.48 138.001L1173.52 135.557C1179.83 120.847 1188.29 109.266 1198.97 100.937C1209.28 92.871 1220.51 87.1622 1232.64 83.833L1233.82 83.5176C1246.35 80.1766 1258.7 78.5 1270.86 78.5ZM1319.5 206.854C1317.62 207.791 1315.31 208.651 1312.6 209.447L1312.59 209.451L1312.57 209.456C1307.32 210.926 1301.27 212.229 1294.41 213.371L1294.38 213.377C1287.68 214.408 1281.13 215.337 1274.73 216.162L1274.71 216.164L1274.69 216.166C1268.43 216.885 1263.35 217.501 1259.46 218.013H1259.46C1250.14 219.228 1241.46 221.2 1233.4 223.92L1233.38 223.926C1225.6 226.487 1219.4 230.34 1214.69 235.435L1214.69 235.436C1210.28 240.207 1207.94 246.842 1207.94 255.647C1207.94 267.577 1212.3 276.321 1220.89 282.276C1229.84 288.304 1241.3 291.409 1255.43 291.409C1269.51 291.409 1281.19 288.645 1290.6 283.255L1290.61 283.249L1291.5 282.732C1300.68 277.351 1307.55 270.531 1312.19 262.289L1312.2 262.279L1312.2 262.271C1317.14 253.683 1319.58 244.699 1319.58 235.282V206.81C1319.55 206.824 1319.53 206.84 1319.5 206.854Z"
        fill="white" stroke="white" stroke-width="5" />
    <path
        d="M1148.98 120.847L1145.88 120.07C1145.07 119.868 1143.35 119.567 1140.67 119.166L1137.65 118.732L1137.59 118.723C1133.42 118.028 1128.98 117.677 1124.27 117.677C1113.11 117.677 1103.23 120.015 1094.59 124.633L1094.58 124.638C1086.01 129.166 1079.25 135.445 1074.24 143.496C1069.37 151.395 1066.9 160.443 1066.9 170.718V323.181H1025.49V81.2031H1065.67V113.069C1070.45 103.322 1077.83 95.2469 1087.73 88.8535L1088.84 88.1543C1100.3 81.0433 1113.16 77.5001 1127.35 77.5C1130.05 77.5 1133.42 77.5521 1137.44 77.6553C1141.47 77.7585 1144.58 77.9147 1146.73 78.1299L1148.98 78.3545V120.847Z"
        fill="white" stroke="white" stroke-width="5" />
    <path
        d="M933.698 21.5V78.2754H984.303V114.132H933.698V249.869C933.698 259.978 935.176 267.157 937.822 271.734C940.658 276.356 944.142 279.317 948.24 280.839C952.792 282.384 957.598 283.162 962.672 283.162C966.59 283.162 969.722 282.961 972.107 282.583C974.654 282.074 976.694 281.666 978.227 281.359L980.617 280.882L981.155 283.259L988.561 315.967L989.043 318.094L987 318.859C984.364 319.848 980.787 320.802 976.328 321.736C971.657 322.82 965.852 323.339 958.969 323.339C948.313 323.339 937.886 321.045 927.708 316.486L927.699 316.482C917.512 311.871 909.046 304.844 902.32 295.449L902.314 295.441L902.31 295.434C895.57 285.868 892.288 273.914 892.288 259.743V114.132H856.494V78.2754H892.288V21.5H933.698Z"
        fill="white" stroke="white" stroke-width="5" />
    <path
        d="M737.415 79.5C761.206 79.5 780.222 84.7156 794.172 95.4463H794.171C808.059 106.05 817.908 120.05 823.715 137.364L824.549 139.85L822.025 140.564L789.317 149.821L787.108 150.446L786.298 148.298C784.34 143.109 781.437 138.03 777.562 133.062L777.546 133.04L777.529 133.019C774.003 128.286 769.178 124.304 762.976 121.107L762.37 120.801C756.038 117.635 747.765 115.974 737.415 115.974C723.301 115.974 711.742 119.223 702.58 125.559L702.576 125.562C693.578 131.754 689.311 139.415 689.311 148.649C689.311 157.005 692.305 163.408 698.242 168.14L698.832 168.599C705.033 173.321 714.72 177.426 728.136 180.781H728.137L763.313 189.421H763.312C784.746 194.624 801.025 202.651 811.858 213.695L812.365 214.214C822.935 225.157 828.164 239.167 828.164 256.03C828.164 270.118 824.098 282.769 815.966 293.902L815.967 293.903C807.957 305.011 796.782 313.704 782.555 320.027C768.289 326.367 751.783 329.5 733.095 329.5C708.949 329.5 688.688 324.341 672.468 313.852L671.698 313.348C655.518 302.631 645.212 287.039 640.755 266.768L640.547 265.799L640.055 263.445L642.388 262.862L676.947 254.222L679.354 253.62L679.974 256.022C683.143 268.302 689.068 277.31 697.64 283.285L698.466 283.84C707.087 289.486 718.362 292.409 732.478 292.409C749.118 292.409 762.02 288.877 771.437 282.082C781.027 275.133 785.519 267.08 785.52 257.882C785.52 250.311 782.9 244.076 777.645 239.008L777.636 239L777.628 238.991C772.323 233.782 763.974 229.714 752.276 226.991H752.272L712.776 217.733L712.771 217.732C690.817 212.53 674.347 204.393 663.7 193.102L663.692 193.092L663.684 193.083C653.132 181.67 647.899 167.415 647.899 150.501C647.899 136.628 651.807 124.278 659.644 113.542L659.647 113.536L659.652 113.529C667.548 102.86 678.243 94.5307 691.649 88.5137L691.656 88.5107L692.93 87.9541C706.144 82.3007 720.986 79.5 737.415 79.5Z"
        fill="white" stroke="white" stroke-width="5" />
    <path
        d="M513.82 78.5C521.618 78.5 530.51 79.4468 540.479 81.3145H540.479C550.778 83.1193 560.683 86.8855 570.186 92.5869H570.185C579.986 98.4059 588.04 107.145 594.386 118.674L594.98 119.783C601.026 131.359 603.953 146.466 603.953 164.93V323.563H562.542V295.181C560.242 298.725 557.291 302.369 553.715 306.114L552.632 307.232C546.781 313.187 539.13 318.21 529.76 322.345L528.848 322.742C518.887 327.026 506.856 329.117 492.838 329.117C477.5 329.117 463.508 326.227 450.904 320.401L450.889 320.394C438.255 314.448 428.177 305.874 420.714 294.679L420.708 294.67C413.192 283.289 409.494 269.624 409.494 253.796C409.494 240.344 412.059 229.117 417.382 220.288L417.905 219.44C423.485 210.539 430.953 203.559 440.273 198.523C449.158 193.724 458.911 190.123 469.52 187.711L470.549 187.481C481.521 184.998 492.545 183.031 503.622 181.582L503.628 181.581L508.904 180.908C520.919 179.388 530.856 178.221 538.711 177.408C547.664 176.389 553.818 174.737 557.471 172.637L557.481 172.63L557.493 172.623L557.794 172.448C560.853 170.602 562.542 167.485 562.542 162.461V161.227C562.542 146.467 558.514 135.343 550.767 127.499L550.761 127.493L550.756 127.487C543.167 119.709 531.435 115.591 515.055 115.591C498.543 115.591 485.807 119.094 476.578 125.826L475.696 126.487C466.046 133.926 459.408 141.756 455.609 149.937L454.648 152.006L452.501 151.238L417.941 138.896L415.437 138.001L416.484 135.557C422.591 121.307 430.725 109.993 440.936 101.728L441.93 100.937C452.242 92.8708 463.47 87.1623 475.603 83.833L476.779 83.5176C489.313 80.1766 501.661 78.5 513.82 78.5ZM562.457 206.854C560.584 207.791 558.273 208.651 555.564 209.447L555.549 209.451L555.533 209.456C550.284 210.926 544.227 212.229 537.374 213.371L537.343 213.377C530.638 214.408 524.087 215.337 517.688 216.162L517.671 216.164L517.654 216.166C511.387 216.885 506.31 217.501 502.421 218.013H502.418C493.102 219.228 484.417 221.2 476.357 223.92L476.34 223.926C468.556 226.487 462.357 230.34 457.646 235.435L457.647 235.436C453.243 240.207 450.904 246.842 450.904 255.647C450.904 267.577 455.26 276.321 463.852 282.276C472.801 288.304 484.258 291.409 498.393 291.409C512.47 291.409 524.152 288.645 533.56 283.255L533.569 283.249L534.465 282.732C543.643 277.351 550.508 270.531 555.149 262.289L555.155 262.279L555.16 262.271C560.095 253.683 562.542 244.699 562.542 235.282V206.81C562.513 206.824 562.486 206.84 562.457 206.854Z"
        fill="white" stroke="white" stroke-width="5" />
</svg>