<?xml version="1.0" encoding="utf-8"?>
<svg version="1.1" id="Layer_1" xmlns="http://www.w3.org/2000/svg" xmlns:xlink="http://www.w3.org/1999/xlink" x="0px" y="0px" viewBox="0 0 1000 1000" style="enable-background:new 0 0 1000 1000;" xml:space="preserve">
<style type="text/css">
	.st0{fill:none;stroke:#000000;stroke-width:2;stroke-miterlimit:10;}
</style>
<g>
	<polygon points="530.7,479.1 498.5,622.1 550.6,670.2 583.3,525.2 	"/>
	<path class="st0" d="M324.2,550L289.9,688l208.2-67.6L529,483.7c0.4-2-1.4-3.7-3.3-3l-63.9,20.7L446.2,570l-68,23.4l-52.7-49.2L324.2,550z"/>
	<polygon points="342.1,738.1 288.1,689.7 498.9,620.5 550.6,670.2 	"/>
	<polygon points="273.2,497.7 377.2,594.8 446.6,569 338.8,473.8 	"/>
	<path d="M315.5,273.6c0,0,73.1-15.7,74.1-15.5s-50.9,215.7-50.9,215.7l-65.6,23.8l-7.2-4.4L315.5,273.6z"/>
	<path class="st0" d="M490.8,357.9l-101.3-96.3c-0.1-0.1-0.2,0-0.2,0.1l-49,212.2L446.6,569c0.1,0.1,0.2,0,0.2-0.1l14.9-67.6l-51.6-49.2l15.8-70l67.6-21.5L490.8,357.9z"/>
	<polygon class="st0" points="302.1,610 200.7,514.9 270.3,492.5 325.6,544.2 308.2,616.3 	"/>
	<polygon points="198.8,514.7 214.5,444.8 282.2,421.4 266,493.3 	"/>
	<polygon points="554.2,406.1 569.9,336.8 425.9,382.2 410.1,452.2 	"/>
	<polygon points="707.6,560.3 545.8,407.1 562,335.2 725.9,484.6 	"/>
	<path class="st0" d="M565.4,598.3c0,0,133.8-36.8,140.3-38.6L546.1,408.2l-135.7,43.9c-0.1,0-0.1,0.1,0,0.2l51.5,49l68.3-22.1l52,45.5L565.4,598.3z"/>
	<polygon class="st0" points="442.1,310.2 581.7,265.3 561.4,339.8 493.5,360.7 	"/>
	<polygon points="617.1,387 631.6,310.6 583,263.8 562.6,338 	"/>
	<polygon points="550.6,670.2 607.1,720.5 534.3,742.1 485,691.6 	"/>
	<path class="st0" d="M606.5,719.7c-0.2,0.7-57-51.7-57-51.7l14.7-69.6l72.9-19.7C637.1,578.6,606.5,719.6,606.5,719.7z"/>
</g>
</svg>
